<?xml version="1.0" standalone="no"?>
<!DOCTYPE svg PUBLIC "-//W3C//DTD SVG 20010904//EN"
 "http://www.w3.org/TR/2001/REC-SVG-20010904/DTD/svg10.dtd">
<svg version="1.0" xmlns="http://www.w3.org/2000/svg"
 width="500.000000pt" height="500.000000pt" viewBox="0 0 500.000000 500.000000"
 preserveAspectRatio="xMidYMid meet">
<metadata>
Created by potrace 1.14, written by Peter Selinger 2001-2017
</metadata>
<g transform="translate(0.000000,500.000000) scale(0.100000,-0.100000)"
fill="#000000" stroke="none">
<path d="M2334 3978 c3 -13 13 -57 22 -98 9 -41 19 -78 23 -82 5 -6 -12 182
-18 200 -1 1 -8 2 -17 2 -12 0 -15 -6 -10 -22z"/>
<path d="M2691 3908 l1 -93 13 80 c17 105 17 105 0 105 -12 0 -15 -16 -14 -92z"/>
<path d="M2027 3973 c-2 -5 9 -44 24 -88 21 -58 27 -69 23 -40 -16 111 -32
154 -47 128z"/>
<path d="M2995 3918 c-11 -30 -42 -199 -35 -191 11 11 60 164 60 186 0 20 -18
23 -25 5z"/>
<path d="M1626 3802 c-5 -8 184 -336 190 -330 5 6 -167 338 -176 338 -5 0 -11
-4 -14 -8z"/>
<path d="M3282 3798 c-17 -21 -84 -174 -69 -158 21 22 97 148 97 160 0 14 -15
13 -28 -2z"/>
<path d="M2676 3741 c-8 -13 -24 -302 -16 -294 10 9 38 288 30 296 -4 5 -11 4
-14 -2z"/>
<path d="M2386 3712 c-7 -11 51 -309 65 -332 6 -10 7 -5 4 15 -3 17 -14 92
-24 168 -17 129 -30 173 -45 149z"/>
<path d="M2123 3663 c-9 -3 -13 -31 -13 -91 0 -76 -2 -89 -20 -100 -11 -7 -20
-20 -20 -30 0 -10 -7 -28 -16 -40 -12 -17 -19 -20 -34 -12 -26 14 -56 12 -69
-4 -8 -10 -24 -12 -51 -9 -35 5 -41 3 -49 -18 -10 -29 -5 -45 26 -82 13 -16
23 -36 23 -46 0 -21 26 -46 56 -55 12 -4 26 -18 32 -31 7 -14 19 -28 27 -31
21 -8 19 -27 -5 -49 -20 -18 -20 -17 -20 11 -1 26 -2 27 -14 12 -16 -22 -36
-5 -36 31 0 15 -4 32 -9 40 -6 10 -11 5 -16 -19 -7 -30 -8 -31 -23 -16 -9 9
-17 26 -17 37 0 12 -10 28 -23 37 -22 14 -22 14 -13 -11 l10 -25 -29 16 c-20
11 -25 19 -17 25 9 5 7 12 -7 22 -27 21 -39 19 -26 -5 8 -15 6 -21 -9 -29 -10
-6 -22 -7 -27 -3 -5 4 -2 -1 5 -10 15 -20 47 -24 53 -8 2 7 11 5 23 -4 19 -15
19 -15 -10 -16 l-29 0 22 -16 c13 -9 34 -14 48 -11 29 5 53 -17 28 -27 -10 -4
-22 -2 -28 4 -5 5 -22 10 -37 10 -15 0 -32 7 -40 16 -7 8 -26 22 -42 31 -27
14 -32 13 -56 -5 -20 -14 -31 -17 -48 -9 -33 15 -53 2 -53 -34 0 -18 -7 -41
-17 -51 -34 -38 -13 -103 40 -121 8 -2 7 -9 -6 -21 -22 -22 -22 -69 1 -88 9
-8 32 -20 50 -28 20 -8 32 -19 32 -31 0 -26 -13 -24 -25 4 -6 12 -20 23 -33
25 -21 3 -22 1 -12 -17 9 -19 8 -21 -15 -21 -15 0 -24 5 -22 13 1 7 -10 13
-27 15 -26 3 -28 2 -17 -12 11 -13 11 -16 0 -16 -8 0 -20 4 -28 9 -21 14 -44
2 -30 -15 6 -8 9 -20 6 -28 -4 -10 0 -12 15 -8 12 3 18 11 15 22 -3 13 1 16
20 12 19 -3 21 -7 12 -18 -9 -11 -7 -14 10 -14 12 0 24 7 27 15 4 8 18 15 33
14 26 -1 25 -1 -6 -15 -30 -13 -33 -18 -32 -57 0 -23 44 -202 97 -397 l98
-355 27 3 c20 2 27 -2 27 -14 0 -15 9 -16 68 -10 152 14 784 18 1021 7 170 -8
247 -9 255 -1 5 5 22 10 36 10 27 0 27 1 114 343 47 188 94 355 102 370 10 18
14 41 11 61 -4 26 1 39 24 65 34 39 36 56 10 72 -15 10 -16 17 -8 40 10 26 8
31 -27 65 -33 32 -41 36 -57 26 -26 -17 -34 -15 -18 4 12 15 11 16 -10 9 -17
-5 -22 -4 -19 6 3 8 12 13 20 11 8 -1 23 7 32 17 18 19 17 20 -10 17 -16 -2
-38 -15 -52 -32 l-23 -29 6 60 c4 34 2 72 -4 87 -10 26 2 97 19 108 4 3 10 26
14 51 7 50 -3 67 -44 71 -18 2 -28 -6 -45 -39 -12 -23 -26 -58 -29 -79 -5 -25
-20 -48 -47 -72 -27 -24 -44 -52 -56 -89 -13 -40 -21 -53 -36 -53 -19 0 -20 1
-2 20 18 19 17 20 -1 20 -11 0 -25 -5 -31 -11 -9 -9 -11 -7 -6 9 3 12 8 21 12
20 20 -2 32 4 42 23 10 19 9 20 -11 14 -19 -6 -21 -5 -11 13 7 13 17 18 30 15
23 -6 39 16 20 28 -10 6 -9 9 6 14 49 16 51 18 32 22 -10 3 -29 -3 -42 -11
-23 -15 -25 -15 -25 0 0 14 -3 14 -16 3 -9 -7 -13 -21 -10 -33 3 -12 -2 -30
-10 -40 -13 -19 -14 -18 -14 8 0 25 -2 27 -15 16 -18 -15 -16 -56 3 -52 10 2
10 -2 2 -19 l-12 -21 -15 21 c-8 12 -17 20 -21 17 -4 -2 -66 69 -138 158 -101
125 -136 162 -157 164 -56 7 -92 -42 -67 -89 7 -12 39 -55 71 -94 33 -39 59
-74 59 -78 0 -3 -9 -11 -20 -17 -15 -8 -28 -5 -60 11 -45 23 -45 24 -25 59 17
31 4 50 -35 50 -23 0 -29 -5 -34 -31 -5 -27 -8 -30 -22 -18 -10 8 -56 15 -120
19 l-105 5 41 54 c32 43 40 60 35 80 -15 61 -77 69 -124 16 l-31 -36 -12 28
c-6 15 -13 87 -16 158 -3 82 -8 133 -16 137 -12 9 -44 9 -63 1z m620 -563 c-5
-20 -33 -29 -33 -10 0 7 25 27 37 30 0 0 -1 -9 -4 -20z m53 -38 c-9 -8 -26 10
-26 26 1 15 2 15 15 -2 8 -11 13 -21 11 -24z m59 -62 c3 -5 1 -10 -4 -10 -6 0
-11 5 -11 10 0 6 2 10 4 10 3 0 8 -4 11 -10z m406 -73 c-10 -9 -11 -8 -5 6 3
10 9 15 12 12 3 -3 0 -11 -7 -18z m-20 -60 c-10 -9 -11 -8 -5 6 3 10 9 15 12
12 3 -3 0 -11 -7 -18z m-1511 -124 c0 -20 -23 -11 -26 9 -1 11 3 15 12 11 8
-3 14 -12 14 -20z"/>
<path d="M2926 3642 c-4 -7 -49 -201 -71 -312 -13 -63 15 16 55 153 28 99 39
152 32 159 -6 6 -12 6 -16 0z"/>
<path d="M1286 3531 c-9 -14 88 -118 229 -244 l80 -72 -62 70 c-152 172 -239
259 -247 246z"/>
<path d="M3599 3497 c-51 -61 -57 -74 -23 -50 48 35 79 72 68 83 -6 6 -22 -5
-45 -33z"/>
<path d="M3423 3315 c-46 -51 -83 -96 -83 -100 0 -3 43 33 95 82 89 82 112
114 83 112 -7 0 -50 -43 -95 -94z"/>
<path d="M1695 3238 c1 -13 -3 -26 -9 -30 -6 -4 -4 -10 8 -14 26 -10 46 15 35
44 -4 12 -14 22 -22 22 -8 0 -13 -9 -12 -22z"/>
<path d="M3150 3240 c-8 -5 -11 -12 -8 -16 10 -9 38 3 38 16 0 12 -10 13 -30
0z"/>
<path d="M3101 3226 c-8 -9 -11 -19 -7 -23 9 -9 29 13 24 27 -2 8 -8 7 -17 -4z"/>
<path d="M1020 3167 c0 -11 118 -77 137 -77 4 0 -21 20 -55 45 -64 47 -82 54
-82 32z"/>
<path d="M3832 3135 c-34 -25 -62 -48 -62 -51 0 -3 32 11 70 32 39 20 70 43
70 50 0 22 -12 17 -78 -31z"/>
<path d="M3366 3094 c-9 -8 -14 -20 -10 -25 3 -6 0 -17 -8 -26 -11 -14 -11
-15 2 -7 8 5 24 9 34 9 11 0 21 6 23 13 3 6 -3 12 -12 12 -12 0 -16 6 -12 20
6 24 3 25 -17 4z"/>
<path d="M3405 3099 c-12 -19 5 -23 22 -6 16 16 16 17 1 17 -9 0 -20 -5 -23
-11z"/>
<path d="M1197 3073 c-4 -3 -7 -10 -7 -14 0 -3 62 -42 138 -84 75 -43 156 -89
180 -102 23 -14 42 -23 42 -20 0 3 -69 49 -152 103 -84 53 -162 103 -174 111
-11 7 -24 10 -27 6z"/>
<path d="M3318 3056 c-10 -7 -18 -19 -18 -25 0 -20 22 -7 31 17 10 26 10 26
-13 8z"/>
<path d="M3632 3014 c-45 -30 -82 -57 -82 -60 0 -3 41 16 90 42 50 26 90 51
90 55 0 22 -24 13 -98 -37z"/>
<path d="M854 2758 c-3 -5 -3 -12 0 -15 8 -8 279 -74 289 -70 5 1 -57 23 -137
49 -84 26 -149 41 -152 36z"/>
<path d="M3957 2728 c-65 -22 -117 -41 -115 -43 5 -6 233 47 243 56 5 6 5 12
0 18 -6 5 -59 -8 -128 -31z"/>
<path d="M1415 2730 c-3 -5 3 -10 14 -10 12 0 21 5 21 10 0 6 -6 10 -14 10 -8
0 -18 -4 -21 -10z"/>
<path d="M3657 2647 c-65 -21 -117 -40 -115 -42 5 -5 233 47 243 56 5 6 5 12
0 17 -6 5 -63 -9 -128 -31z"/>
<path d="M1214 2658 c-3 -5 -4 -12 -1 -15 3 -3 74 -22 157 -43 84 -21 148 -35
144 -30 -18 16 -294 97 -300 88z"/>
<path d="M800 2303 c0 -15 15 -15 152 -10 83 4 188 8 232 9 81 1 81 1 -29 8
-60 4 -165 8 -232 9 -108 1 -123 -1 -123 -16z"/>
<path d="M1350 2304 c0 -15 10 -16 77 -10 42 3 92 7 112 7 51 2 -55 17 -131
18 -48 1 -58 -2 -58 -15z"/>
<path d="M3475 2310 c-44 -6 -45 -7 -14 -8 20 -1 70 -5 112 -8 67 -6 77 -5 77
10 0 13 -10 16 -62 14 -35 0 -85 -4 -113 -8z"/>
<path d="M3835 2310 l-100 -6 81 -2 c44 -1 149 -5 232 -9 137 -5 152 -5 152
10 0 15 -15 17 -132 15 -73 -1 -178 -5 -233 -8z"/>
<path d="M1570 1789 c-172 -69 -171 -311 2 -383 65 -28 150 -16 195 26 21 19
23 30 23 109 0 100 1 99 -95 99 -53 0 -66 -3 -75 -19 -5 -11 -10 -24 -10 -30
0 -18 31 -41 56 -41 19 0 24 -5 24 -24 0 -53 -104 -35 -134 23 -25 47 -20 79
18 117 38 38 70 43 117 18 16 -8 38 -12 48 -9 23 7 45 49 37 70 -15 41 -144
68 -206 44z"/>
<path d="M3392 1768 c-6 -6 -12 -29 -12 -50 0 -31 -4 -38 -19 -38 -12 0 -21
-10 -26 -27 -6 -24 -8 -26 -16 -10 -14 25 -63 47 -104 47 -72 0 -137 -45 -154
-105 l-8 -30 -8 37 c-8 43 -44 84 -81 91 -14 2 -40 -3 -59 -13 -33 -17 -36
-17 -75 2 -37 19 -41 19 -72 3 -21 -10 -34 -12 -36 -5 -5 14 -75 13 -90 -2 -8
-8 -12 -9 -12 -1 0 20 -56 25 -89 8 -19 -9 -31 -11 -31 -5 0 7 -17 10 -42 8
l-43 -3 0 -135 0 -135 39 -3 c50 -4 56 6 56 94 0 82 12 100 59 89 23 -5 32 -2
45 16 14 21 15 15 18 -87 l3 -109 45 0 45 0 3 65 c3 96 9 112 35 108 20 -3 22
-10 27 -88 l5 -85 45 0 45 0 5 85 c5 78 7 85 27 88 26 4 32 -12 35 -108 l3
-65 39 -3 c48 -4 55 6 57 78 1 45 2 50 8 25 18 -75 73 -115 160 -115 85 0 120
26 101 75 -9 25 -12 25 -73 19 -51 -5 -65 -3 -76 10 -12 14 -6 16 62 16 84 0
107 12 107 57 0 19 4 24 16 19 9 -3 18 -6 20 -6 2 0 4 -20 4 -45 0 -56 21
-110 49 -125 12 -6 43 -10 69 -8 l47 3 0 40 c0 36 -3 40 -30 45 -27 5 -30 9
-33 48 -3 40 -2 42 25 42 48 0 70 31 53 75 -8 20 -16 25 -44 25 -35 0 -35 1
-38 48 -3 46 -4 47 -38 50 -19 2 -41 -3 -48 -10z m-154 -190 c3 -15 -4 -18
-39 -18 -42 0 -42 0 -24 20 22 24 58 23 63 -2z"/>
<path d="M1882 1674 c-121 -62 -103 -236 29 -276 78 -23 165 28 187 109 l10
38 1 -34 c2 -51 65 -111 118 -111 21 0 45 6 51 12 10 10 14 10 21 0 5 -8 23
-12 47 -10 l39 3 3 133 3 132 -26 10 c-26 10 -55 4 -67 -14 -4 -6 -8 -41 -8
-77 0 -73 -12 -93 -52 -87 -21 3 -23 9 -28 83 -5 74 -7 81 -32 92 -46 23 -78
-8 -78 -75 0 -26 0 -26 -18 7 -9 19 -29 43 -44 54 -36 27 -114 32 -156 11z
m102 -100 c23 -23 20 -51 -9 -70 -23 -15 -27 -15 -50 0 -14 9 -25 25 -25 36 0
24 26 50 50 50 10 0 26 -7 34 -16z"/>
<path d="M1465 1205 c-31 -30 -33 -82 -5 -117 23 -30 60 -39 106 -26 31 8 34
12 34 48 0 33 -3 40 -20 40 -15 0 -20 -7 -20 -25 0 -30 -20 -41 -49 -26 -26
14 -35 45 -21 72 10 18 18 21 56 16 49 -5 67 9 39 30 -31 22 -92 16 -120 -12z"/>
<path d="M1710 1145 c0 -84 0 -85 25 -85 18 0 25 5 25 20 0 12 7 20 18 20 9 0
23 -9 30 -20 7 -12 23 -20 39 -20 25 0 26 1 8 20 -17 18 -17 21 -1 55 29 60
-5 95 -93 95 l-51 0 0 -85z m105 20 c0 -14 -8 -21 -27 -23 -24 -3 -28 0 -28
23 0 23 4 26 28 23 19 -2 27 -9 27 -23z"/>
<path d="M1994 1206 c-53 -45 -26 -136 44 -149 34 -7 87 15 101 41 49 92 -66
177 -145 108z m106 -36 c14 -26 5 -57 -21 -71 -43 -23 -92 44 -57 79 20 20 66
15 78 -8z"/>
<path d="M2276 1199 c-30 -35 -32 -58 -11 -99 19 -37 69 -54 113 -39 31 11 42
32 22 44 -5 3 -19 1 -31 -6 -33 -17 -69 3 -69 40 0 39 22 55 65 48 19 -3 37
-1 41 4 12 20 -19 39 -61 39 -36 0 -48 -5 -69 -31z"/>
<path d="M2520 1145 l0 -85 70 0 c56 0 70 3 70 15 0 11 -12 15 -45 15 -38 0
-45 3 -45 20 0 16 7 20 35 20 24 0 35 5 35 15 0 10 -11 15 -35 15 -24 0 -35 5
-35 15 0 11 11 15 40 15 33 0 40 3 40 20 0 18 -7 20 -65 20 l-65 0 0 -85z"/>
<path d="M2770 1145 c0 -78 2 -85 20 -85 13 0 20 7 20 20 0 13 7 20 20 20 10
0 24 -9 30 -20 6 -12 21 -20 36 -20 24 0 24 1 8 25 -14 22 -14 26 0 47 38 55
3 98 -79 98 l-55 0 0 -85z m98 23 c-2 -17 -11 -24 -30 -26 -24 -3 -28 0 -28
22 0 22 4 26 31 26 26 0 30 -3 27 -22z"/>
<path d="M3030 1145 c0 -78 2 -85 20 -85 18 0 20 7 20 85 0 78 -2 85 -20 85
-18 0 -20 -7 -20 -85z"/>
<path d="M3190 1145 l0 -85 70 0 c54 0 70 3 70 14 0 11 -14 16 -47 18 -36 2
-49 7 -51 21 -3 14 4 17 37 17 30 0 41 4 41 15 0 11 -11 15 -40 15 -29 0 -40
4 -40 15 0 11 12 15 45 15 38 0 45 3 45 20 0 18 -7 20 -65 20 l-65 0 0 -85z"/>
<path d="M3448 1218 c-41 -33 -20 -79 41 -93 17 -4 31 -11 31 -16 0 -16 -28
-22 -59 -11 -24 8 -31 7 -35 -5 -9 -22 -9 -21 28 -31 46 -13 84 -4 102 24 22
32 4 61 -46 74 -58 16 -48 44 12 33 29 -6 48 14 27 28 -21 13 -83 11 -101 -3z"/>
</g>
</svg>
